<svg width="2500" height="1126" viewBox="0 0 2500 1126" fill="none" xmlns="http://www.w3.org/2000/svg">
<g clip-path="url(#clip0_12_11)">
<path d="M1943.91 173.205C1939.61 173.819 1927.93 175.97 1917.79 177.506C1885.84 183.036 1882.46 183.958 1884.3 187.031C1886.45 190.717 2048.37 190.717 2048.37 187.031C2048.37 179.657 1968.18 168.903 1943.91 173.205ZM902.37 183.036C900.526 183.651 899.912 185.494 901.141 187.031C903.291 190.717 1043.7 190.717 1043.7 186.723C1043.7 184.265 909.743 180.579 902.37 183.036ZM1465.85 183.344C1465.23 183.958 1464.62 185.802 1464.62 187.338C1464.62 191.025 1749.43 190.41 1751.88 186.723C1753.73 183.958 1468.92 180.579 1465.85 183.344ZM2165.12 183.036C2163.28 183.651 2162.66 185.494 2163.89 187.031C2166.04 191.025 2496.02 190.717 2498.47 186.723C2500.01 183.958 2173.11 180.579 2165.12 183.036ZM495.279 186.723C496.508 188.567 536.756 189.796 605.884 189.796C675.013 189.796 715.261 188.567 716.49 186.723C717.719 184.573 680.236 183.651 605.884 183.651C531.533 183.651 494.05 184.573 495.279 186.723ZM1080.57 186.723C1080.57 188.874 1126.65 189.796 1212.37 189.796C1297.17 189.796 1345.1 188.567 1346.33 186.723C1347.56 184.573 1302.7 183.651 1214.52 183.651C1127.27 183.651 1080.57 184.573 1080.57 186.723ZM154.858 201.163C153.629 202.085 152.708 204.236 152.708 205.772C152.708 207.001 225.216 208.23 314.008 208.23C491.899 208.23 483.911 207.308 474.079 226.972C464.555 246.328 453.494 245.099 637.837 245.099C730.931 245.099 807.433 243.87 808.355 242.333C809.276 241.104 805.897 233.424 800.981 225.743C796.372 218.062 792.993 210.995 793.915 210.073C797.294 207.001 880.249 207.923 882.399 211.302C883.321 212.839 881.478 220.52 878.098 228.2C873.489 238.647 872.875 242.641 875.64 243.87C877.791 244.484 911.28 244.791 949.992 244.484L1020.66 243.562L1029.57 225.743C1037.86 209.152 1038.78 208.23 1050.15 208.23C1056.6 208.23 1062.44 209.459 1063.36 210.995C1064.28 212.531 1062.44 219.905 1059.06 226.972C1055.99 234.345 1054.15 241.412 1055.68 242.948C1056.91 244.177 1135.87 244.791 1231.42 244.484L1404.7 243.562L1404.4 234.345C1404.4 229.122 1403.78 221.748 1402.86 217.447C1401.63 210.073 1402.25 209.766 1422.83 208.844C1434.51 208.23 1445.26 209.152 1446.8 210.688C1448.33 212.224 1447.41 218.983 1444.65 226.357C1442.19 233.731 1440.04 240.797 1440.04 242.333C1440.04 243.87 1503.33 245.099 1582.6 245.099H1725.15L1729.76 237.725C1732.53 233.731 1735.6 226.664 1736.83 222.363C1737.75 217.754 1741.13 212.839 1744.2 211.302C1751.27 207.615 1810.87 207.308 1813.02 210.995C1813.95 212.531 1806.57 219.598 1796.43 226.972C1786.3 234.345 1778 241.412 1778 242.641C1778 246.328 2093.84 245.713 2095.99 242.026C2097.22 240.183 2095.68 234.652 2093.23 229.122C2083.09 209.459 2084.93 207.923 2116.88 208.844C2144.84 209.766 2145.15 209.766 2144.23 217.14C2143.61 221.441 2140.85 227.893 2138.39 231.58C2135.93 235.574 2134.7 240.183 2135.93 242.026C2137.16 244.177 2192.16 245.099 2305.22 245.099H2472.36L2481.58 226.05C2486.8 215.604 2490.79 205.465 2490.79 203.007C2490.79 199.627 2289.55 199.013 1323.9 199.013C682.08 199.013 155.78 199.935 154.858 201.163ZM367.16 256.774C211.39 257.081 128.129 258.617 128.129 260.461C128.129 262.611 184.66 263.533 289.122 263.533C377.913 263.533 451.036 264.762 451.958 266.298C452.88 267.834 451.343 275.515 448.886 283.503C444.584 295.793 444.584 298.558 447.964 300.709C450.422 302.245 481.453 303.474 516.785 303.474C585.299 303.167 588.986 302.552 593.595 288.112C597.282 276.744 608.035 263.533 613.565 263.533C616.331 263.533 625.548 265.684 634.15 268.141C647.669 272.136 650.434 274.593 657.193 287.19L664.567 301.938L732.467 302.859C771.179 303.167 803.746 302.245 808.047 300.709C815.114 297.944 816.036 295.486 816.957 281.353L817.879 265.069H837.85C857.206 265.069 857.82 265.376 856.898 272.443C856.591 276.744 854.133 283.811 851.983 288.726C847.989 296.407 847.989 297.636 853.212 300.402C860.893 304.396 983.788 304.396 991.469 300.402C994.541 298.865 1000.99 289.648 1005.6 280.431C1013.9 264.455 1014.82 263.533 1025.88 263.533C1036.63 263.533 1037.55 264.147 1037.55 272.136C1037.55 276.744 1035.4 283.811 1032.64 287.498C1028.95 293.028 1028.64 295.486 1031.41 298.865C1034.48 302.552 1046.77 303.474 1097.16 303.474C1130.96 303.474 1161.99 302.552 1165.98 301.63C1170.28 300.402 1175.81 294.257 1180.42 285.347C1191.17 264.147 1193.63 262.611 1214.52 266.298C1236.03 270.292 1242.79 276.13 1244.02 290.877L1244.94 301.938L1309.15 302.859C1382.58 303.781 1382.28 303.781 1393.64 279.202C1400.4 265.069 1402.25 263.533 1411.16 263.533C1424.37 263.533 1426.52 267.834 1420.07 281.967C1410.24 303.474 1410.24 303.474 1484.28 303.474H1550.34L1556.48 294.871C1560.17 290.263 1564.47 284.732 1566.01 282.582C1568.46 279.817 1587.2 278.895 1639.74 278.895H1710.1L1715.94 271.214C1720.55 265.684 1724.85 263.533 1733.14 263.533C1746.97 263.533 1747.28 267.834 1734.99 283.503C1730.07 289.955 1725.77 296.407 1725.77 297.636C1725.77 302.859 1741.44 303.781 1806.27 302.859L1872.32 301.938L1886.76 288.726C1894.44 281.66 1904.58 274.286 1908.88 272.75C1928.24 265.376 1950.05 272.443 1950.05 286.576C1950.05 303.781 1948.52 303.474 2017.34 303.474C2052.06 303.474 2082.47 302.245 2084.62 300.709C2087.08 299.173 2091.38 290.57 2094.15 281.66C2099.06 266.913 2100.6 265.069 2109.2 264.147C2117.5 263.226 2118.73 264.147 2119.65 271.828L2120.57 280.431L2164.2 281.353L2207.83 282.274L2208.75 292.106L2209.67 301.938L2280.33 302.552L2351 303.474L2357.14 293.335L2363.29 283.503L2407.84 282.582C2456.38 281.66 2463.14 279.509 2463.14 263.84V255.852H1534.36C1023.73 255.852 498.351 256.159 367.16 256.774ZM274.067 312.077C167.762 312.384 104.164 313.92 102.32 315.763C100.17 317.914 153.937 318.836 260.856 318.836C440.897 318.836 435.367 318.221 424.614 338.192C421.849 343.722 419.698 351.096 420.312 354.168C421.541 360.006 424.921 360.313 486.983 361.235C528.153 361.542 554.576 360.928 558.263 358.777C561.642 356.933 567.172 348.638 570.859 340.035C574.546 331.74 580.076 323.444 583.149 321.908C586.221 320.065 601.89 318.836 617.867 318.836C643.06 318.836 647.669 319.758 650.127 324.366C653.506 330.511 651.663 342.493 646.44 348.638C644.597 351.403 644.904 354.168 647.362 357.241C650.434 361.235 662.724 361.849 721.099 361.849H791.457L797.601 354.168C800.981 349.867 804.668 342.186 805.59 337.27C807.74 328.053 817.265 318.836 824.638 318.836C826.789 318.836 829.861 321.601 831.705 324.981C834.163 329.589 833.856 332.969 830.169 338.499C827.404 342.8 825.56 349.252 826.175 353.247L827.096 360.313H968.119L977.643 341.879C988.397 320.679 999.764 313.613 1008.98 322.83C1013.59 327.439 1013.9 329.282 1010.21 338.192C1008.06 343.415 1005.91 350.789 1005.6 354.168C1005.29 360.313 1007.14 360.313 1155.84 360.313H1306.39L1323.29 352.325C1332.5 348.023 1347.25 338.499 1355.55 331.433C1368.76 320.372 1372.75 318.836 1383.2 319.45C1393.64 320.372 1395.79 321.601 1396.41 327.746C1397.02 331.74 1395.79 338.192 1393.95 341.879C1391.8 345.566 1390.88 351.403 1391.49 354.476C1392.42 360.006 1397.95 360.313 1522.99 361.235C1621.62 361.849 1655.41 360.928 1660.63 358.162C1664.63 356.012 1671.39 347.102 1675.38 338.192C1682.76 323.137 1691.36 316.071 1698.12 320.372C1703.03 323.444 1701.8 339.114 1696.58 343.415C1693.82 345.566 1691.97 350.481 1692.59 353.861C1693.51 360.006 1695.35 360.313 1763.25 361.235C1808.72 361.849 1835.45 360.928 1839.45 358.777C1842.83 356.933 1848.05 349.56 1851.43 342.493C1863.1 316.992 1849.28 318.529 2028.71 319.45L2188.16 320.372L2189.08 328.667C2189.7 333.276 2187.86 340.343 2185.09 344.337C2182.63 348.331 2181.1 354.168 2182.33 356.933C2183.86 361.235 2192.16 361.849 2252.38 361.849C2319.35 361.849 2320.89 361.849 2327.03 354.783C2334.72 346.795 2343.32 326.824 2343.32 317.607V310.848L1393.34 311.155C870.724 311.155 367.16 311.462 274.067 312.077ZM1217.6 322.215C1221.59 328.975 1207.76 337.577 1186.87 340.957C1168.75 344.029 1165.67 343.722 1161.06 339.421C1156.46 334.812 1156.76 333.891 1163.52 326.517C1169.97 319.758 1173.05 318.836 1193.02 318.836C1205.92 318.836 1216.37 320.372 1217.6 322.215ZM83.2717 370.759C78.0487 376.289 100.477 377.211 241.192 377.826L400.035 378.747L400.956 386.121C401.571 390.115 400.649 394.724 398.806 396.567C396.962 398.411 395.426 403.941 395.426 408.549V417.152L465.169 416.538L535.22 415.616L542.901 401.176C547.202 393.495 553.347 384.278 556.419 380.591C561.028 375.675 561.335 373.832 557.955 372.603C552.732 370.759 85.1151 368.916 83.2717 370.759ZM567.48 374.139C567.48 375.982 580.076 377.211 597.896 377.211C632.614 377.211 635.072 379.055 625.548 397.489C615.102 418.074 612.336 417.152 693.14 417.152H766.877L773.022 409.164C776.709 404.555 779.474 399.332 779.474 397.489C779.474 395.338 783.776 389.193 788.999 383.97C796.68 376.289 799.752 374.753 802.824 377.518C807.74 381.513 808.662 394.417 804.053 397.182C802.517 398.103 800.981 403.019 800.981 408.242V417.152H870.11C945.69 417.152 947.841 416.845 953.064 398.718C956.751 386.736 966.89 377.211 976.722 377.211C988.089 377.211 990.24 383.356 984.402 398.103C981.945 404.248 980.716 411.315 981.33 413.158C982.559 416.23 1018.2 417.152 1146.62 417.152C1236.65 417.152 1312.53 416.23 1315.3 415.309C1320.83 413.158 1322.06 397.182 1316.83 393.802C1314.99 392.573 1314.38 387.657 1315.61 381.512L1317.45 371.066H942.311C699.592 371.066 567.48 372.295 567.48 374.139ZM1321.75 374.139C1322.67 375.982 1334.04 377.211 1346.64 377.211C1373.37 377.211 1375.82 379.976 1368.45 399.332C1365.69 406.092 1364.15 413.158 1365.07 414.387C1365.99 415.923 1426.52 417.152 1499.64 417.152C1601.03 417.152 1633.6 416.23 1637.59 413.158C1640.36 411.315 1645.89 403.326 1649.57 395.953C1658.48 378.44 1665.55 373.832 1672.31 380.898C1676.61 385.199 1676.61 387.35 1673.54 396.874C1666.78 417.459 1665.55 417.152 1743.9 417.152H1814.56L1820.71 409.164C1824.39 404.555 1827.16 399.332 1827.16 396.874C1827.16 394.724 1830.54 388.886 1834.84 383.97C1838.83 379.055 1841.6 374.139 1840.37 373.217C1836.99 369.837 1319.6 370.759 1321.75 374.139ZM1848.66 374.139C1848.66 375.982 1903.97 377.518 2004.13 377.826C2178.33 378.747 2170.96 377.826 2160.51 399.64C2157.75 405.784 2156.21 412.236 2157.44 413.773C2159.59 417.459 2289.86 418.688 2298.77 415.309C2304.61 412.851 2319.66 380.898 2317.51 375.061C2316.28 371.681 2271.42 371.066 2082.17 371.066C1930.08 371.066 1848.66 371.988 1848.66 374.139ZM56.2347 428.52C55.313 429.749 54.3913 431.592 54.3913 432.821C54.3913 434.358 125.978 435.279 213.541 435.279C390.51 435.279 383.137 434.358 372.998 455.557C362.859 476.449 360.094 475.835 439.054 474.913L510.333 473.991L518.014 458.015C522.623 449.105 527.539 440.502 529.382 438.659C533.991 434.05 591.137 433.436 595.438 437.737C600.047 442.346 597.589 446.033 579.769 459.858C571.474 466.31 565.636 472.455 566.558 473.684C567.787 474.606 603.427 475.527 646.133 475.527H723.557L734.003 463.852C739.533 457.708 746.293 449.412 749.058 445.725C755.51 436.508 769.028 431.592 776.709 435.586C783.776 439.581 783.776 441.731 777.938 456.171C769.335 476.756 765.956 475.835 846.145 474.913L918.961 473.991L928.178 455.557C936.78 439.273 938.931 437.123 948.148 436.201C963.203 434.665 965.968 439.273 959.209 453.714C949.377 475.835 948.763 475.527 1026.8 475.527H1096.24L1104.23 457.093C1108.83 446.954 1114.67 438.044 1117.44 437.123C1125.73 434.665 1152.46 434.665 1160.14 436.815C1166.59 438.966 1167.21 440.502 1165.06 450.641C1160.14 476.449 1153.38 473.991 1231.73 474.913C1310.69 475.835 1304.24 477.678 1312.53 449.412C1315.3 440.195 1318.06 436.815 1325.13 434.972C1334.65 432.514 1345.1 434.358 1348.48 439.581C1349.4 441.424 1347.87 448.183 1344.49 454.328C1332.81 477.371 1322.06 475.528 1483.97 474.913C1577.99 474.299 1628.99 472.762 1628.99 470.919C1628.99 469.075 1602.26 467.232 1558.32 466.31L1487.66 464.774L1488.27 455.864C1488.58 450.641 1491.35 444.189 1494.73 441.117C1499.64 435.894 1507.02 435.586 1575.84 435.279C1617.62 434.972 1652.95 435.894 1654.8 437.123C1656.64 438.044 1658.18 447.262 1658.18 457.4V475.527H1736.22C1807.49 475.527 1824.7 473.991 1814.87 467.847C1810.87 465.389 1810.87 439.581 1814.87 437.123C1816.4 436.201 1832.07 435.279 1849.28 434.972C1889.83 434.972 1893.21 438.352 1872.63 458.322C1864.95 466.003 1859.42 473.07 1860.34 473.991C1861.26 474.913 1893.83 475.527 1932.85 475.527L2003.82 475.22L2013.96 461.702C2019.18 454.328 2023.79 446.647 2023.79 445.111C2023.79 437.123 2038.54 434.665 2086.47 434.972C2113.5 435.279 2136.85 436.815 2138.39 438.352C2140.54 440.502 2139.31 446.954 2135.01 456.786C2131.63 465.081 2129.48 472.762 2130.71 473.684C2133.17 476.449 2270.5 475.835 2274.5 473.07C2278.49 470.612 2294.16 438.352 2294.16 433.129C2294.16 431.285 2291.7 429.134 2288.94 428.213C2280.95 426.062 58.3854 426.369 56.2347 428.52ZM26.7398 487.817C26.7398 489.968 81.7355 490.889 185.889 490.889C308.478 490.889 346.268 491.811 350.262 494.576C355.178 498.263 355.178 499.492 349.033 511.782C343.503 523.149 342.888 525.607 346.575 528.065C349.033 529.602 417.24 530.83 498.351 530.83C664.874 530.83 650.741 532.674 687.303 505.33C702.972 493.347 705.737 492.426 727.244 491.504C742.913 490.889 752.13 491.811 755.817 494.576C760.733 498.263 760.733 499.185 754.588 511.474C751.208 518.541 749.058 525.915 750.287 527.758C752.437 531.138 876.869 532.367 888.851 528.987C892.845 527.758 898.683 520.999 903.599 510.553C912.201 493.347 920.19 488.432 932.786 492.426C940.467 494.884 940.775 498.57 934.63 510.553C932.172 515.161 930.021 521.921 930.021 524.993C930.021 530.523 933.401 530.83 999.15 530.83H1067.97L1075.96 519.463C1080.26 513.011 1083.64 506.251 1083.64 504.101C1083.64 495.805 1097.16 490.889 1120.82 490.889C1149.08 490.889 1152.15 493.347 1147.85 512.089C1145.4 522.535 1145.7 526.222 1148.78 528.065C1150.93 529.602 1182.26 530.83 1217.9 530.83C1282.73 530.83 1283.35 530.83 1287.95 523.764C1290.41 519.77 1293.48 512.089 1294.41 506.559C1296.56 495.805 1307.31 489.353 1317.45 492.426C1324.52 494.884 1324.82 499.185 1318.37 512.089C1308.54 531.752 1302.39 530.83 1459.7 530.83H1602.57L1608.71 522.228C1612.09 517.312 1615.78 509.631 1617.01 505.022C1619.16 495.805 1628.37 490.889 1642.81 490.889C1653.26 490.889 1660.33 497.341 1663.09 508.709C1664.32 513.318 1668.01 520.077 1671.39 523.764L1677.53 530.83H1808.11C1955.89 530.83 1941.14 533.288 1977.09 504.101L1993.37 490.889H2049.91C2080.94 490.889 2108.28 491.811 2111.05 492.733C2117.19 495.191 2117.19 499.799 2111.05 512.089C2101.83 530.83 2102.14 530.83 2180.48 530.83H2251.45L2260.67 510.86C2265.59 500.107 2269.58 489.66 2269.58 487.817C2269.58 485.666 1909.81 484.745 1148.16 484.745C402.493 484.745 26.7398 485.666 26.7398 487.817ZM0.931758 542.813C0.0100426 544.349 1.239 546.5 4.00414 547.421C6.76929 548.343 80.5065 549.265 168.377 549.265H327.834L329.677 556.946L331.52 564.627L435.06 563.705C532.147 562.476 579.462 559.096 592.673 552.03C595.438 550.494 628.006 549.265 665.181 549.265H732.774L734.617 556.946L736.461 564.627L804.975 564.319C871.953 564.012 873.182 564.012 880.863 556.946C885.164 552.952 890.695 549.572 893.153 549.265C905.135 547.421 912.201 549.572 913.738 555.102C914.659 558.482 918.039 561.554 921.419 562.476C924.491 563.398 954.908 564.319 988.397 564.627L1049.23 564.934L1058.45 556.946C1067.05 549.879 1069.81 549.265 1099.62 549.265C1129.42 549.265 1132.18 549.879 1138.02 556.331C1144.17 563.398 1144.78 563.398 1211.14 563.09C1276.89 562.783 1278.12 562.783 1282.73 556.024C1288.57 547.114 1295.02 547.421 1298.71 556.946L1301.47 564.627H1586.59L1593.66 556.946C1600.72 549.572 1601.95 549.265 1645.27 549.265C1686.14 549.265 1691.05 549.879 1705.8 556.946C1747.58 576.609 1808.11 579.067 1864.03 563.09C1871.71 560.94 1882.46 558.175 1887.68 556.946C1893.21 556.024 1898.44 553.566 1899.36 552.03C1900.59 550.494 1941.14 549.265 1995.22 549.265C2084.32 549.265 2088.92 549.572 2090.46 555.102C2092.3 562.476 2110.12 564.319 2179.25 564.319C2227.49 564.319 2232.41 564.012 2238.24 558.175C2241.93 554.795 2245 549.265 2245 546.192C2245 540.048 2235.48 540.048 1123.89 540.048C467.013 540.048 1.85347 541.277 0.931758 542.813ZM427.686 597.194C369.618 606.104 334.286 626.689 316.773 662.021C309.092 677.69 308.17 683.221 308.17 707.493C308.478 740.06 314.93 757.88 332.442 773.242C344.732 783.995 364.702 794.748 378.528 798.435C388.052 800.893 398.191 803.658 445.506 817.791C460.253 822.093 474.386 825.779 476.537 825.779C478.995 825.779 485.14 829.773 490.363 834.689C503.267 846.979 503.267 859.883 490.363 872.172C482.375 879.853 478.38 881.082 464.247 881.082C449.193 881.082 447.349 880.161 439.361 870.329C434.753 864.491 430.144 856.503 429.222 852.816C427.379 845.75 427.379 845.75 364.702 845.75H301.718L302.333 859.883C303.869 888.763 323.84 919.18 351.184 934.542C379.142 950.211 407.716 955.741 459.946 955.741C515.864 955.741 545.973 949.596 576.082 931.469C604.348 914.879 617.252 896.137 624.626 861.419C628.313 844.214 628.313 836.84 625.548 821.478C615.409 770.169 590.215 751.735 496.508 727.463C477.152 722.547 458.103 717.631 453.801 716.402C443.97 713.637 429.222 700.119 429.222 693.974C429.53 685.371 439.668 675.847 451.958 672.467C472.543 666.937 485.754 672.775 494.971 691.516C498.351 697.968 499.887 698.275 553.961 699.197C596.053 699.812 610.493 698.89 612.951 696.125C615.102 693.36 615.102 687.215 613.565 677.69C606.192 638.978 580.998 615.628 533.683 603.031C514.02 598.116 447.349 594.429 427.686 597.194ZM645.826 607.64C644.904 609.176 643.982 666.323 644.289 734.222C644.289 866.949 645.211 874.016 660.573 898.595C676.242 923.481 702.972 940.687 741.069 950.211C770.564 957.892 846.145 957.892 874.718 950.518C926.642 936.693 955.829 911.192 968.119 868.793C972.42 854.045 973.035 833.768 972.42 728.999L971.498 606.104H839.386L837.85 726.234C836.313 851.895 836.313 850.358 822.795 861.726C817.879 866.028 798.216 866.949 793.3 863.263C781.318 854.353 781.01 853.124 779.474 727.77L777.938 606.104L712.803 605.182C672.248 604.875 647.054 605.489 645.826 607.64ZM993.927 607.64C993.62 609.176 993.62 686.293 994.541 778.772L996.078 947.139L1058.75 948.06C1101.77 948.675 1122.66 947.753 1125.42 945.295C1128.5 942.837 1129.73 928.704 1130.34 887.534L1131.26 833.46L1171.2 831.617C1208.38 830.081 1240.95 824.858 1248.01 819.635C1249.86 818.406 1254.77 816.562 1259.38 815.333C1271.36 812.568 1299.94 783.688 1308.23 765.561C1314.38 752.657 1315.3 745.897 1315.3 715.174C1315.3 682.913 1314.68 678.612 1307.31 664.172C1298.4 647.274 1280.58 628.225 1267.06 621.159C1262.15 618.393 1249.86 613.785 1239.72 610.405C1222.82 605.182 1211.45 604.568 1108.22 604.568C1035.71 604.568 994.541 605.797 993.927 607.64ZM1168.44 684.142C1183.8 691.209 1189.95 705.035 1186.87 725.62C1184.11 744.054 1171.2 753.271 1148.16 753.578H1131.26L1130.34 718.553C1129.73 692.438 1130.65 682.606 1133.41 680.763C1140.17 676.769 1155.23 677.998 1168.44 684.142ZM1334.65 606.718C1331.89 609.176 1331.89 937.307 1334.35 943.759C1335.88 948.06 1344.18 948.675 1395.18 948.675C1427.44 948.675 1456.94 947.753 1460.93 946.831C1467.69 944.988 1467.69 944.373 1467.69 891.836C1467.69 853.124 1468.61 838.069 1471.68 835.611C1473.53 833.768 1492.58 831.924 1513.77 831.003C1573.99 828.852 1602.26 819.327 1628.37 792.905C1649.88 771.091 1656.03 751.428 1654.49 709.951C1653.26 681.07 1652.03 674.925 1644.66 661.407C1629.6 633.755 1613.93 621.466 1580.14 611.02C1560.47 604.875 1552.18 604.568 1448.03 604.568C1386.58 604.568 1335.58 605.489 1334.65 606.718ZM1501.79 681.685C1520.53 688.137 1526.06 695.51 1526.06 715.174C1526.06 735.144 1520.84 744.668 1505.79 750.813C1491.65 756.651 1471.99 756.344 1469.53 750.199C1466.46 742.211 1467.38 690.594 1470.76 684.142C1474.45 677.383 1486.12 676.461 1501.79 681.685ZM1675.07 608.255C1674.15 610.405 1673.85 687.522 1674.15 779.694L1675.07 947.139L1794.59 948.06C1881.23 948.675 1915.03 947.753 1918.41 945.295C1921.79 942.53 1922.4 930.855 1921.79 889.071L1920.87 836.533L1865.56 834.997L1810.26 833.46L1809.34 721.626C1808.72 636.52 1807.8 608.869 1804.73 607.026C1802.89 605.797 1773.08 604.568 1738.67 604.568C1691.67 604.568 1676 605.489 1675.07 608.255ZM1859.42 607.64C1858.19 609.483 1858.8 612.556 1860.34 614.707C1861.88 616.857 1875.39 641.744 1890.14 670.624C1904.89 699.197 1923.32 734.53 1931 748.97C1938.69 763.41 1950.97 786.76 1958.04 801.2L1971.56 827.316V884.769C1971.56 938.843 1971.87 942.53 1977.7 945.602C1981.39 947.753 2005.97 948.368 2044.38 948.06L2105.21 947.139L2106.74 887.227L2108.28 827.316L2135.63 772.013C2150.37 741.596 2174.34 693.052 2188.47 664.479C2202.6 635.599 2214.28 610.405 2214.28 608.255C2214.28 605.489 2197.07 604.568 2142.38 604.568C2071.41 604.568 2070.18 604.568 2065.57 611.327C2062.81 615.014 2060.66 619.93 2060.66 622.08C2060.66 623.924 2056.66 634.677 2051.44 645.43C2046.53 656.491 2042.22 667.552 2042.22 670.009C2042.22 676.154 2033.93 682.299 2028.4 680.148C2025.94 679.227 2023.79 676.769 2023.79 674.311C2023.79 669.395 2000.13 613.785 1995.52 608.255C1991.53 603.339 1862.49 602.724 1859.42 607.64ZM2156.21 905.354C2155.9 915.186 2156.82 918.258 2159.28 915.8C2161.43 913.65 2161.43 909.348 2159.59 902.282L2156.52 891.836L2156.21 905.354Z" fill="#52C9A3"/>
</g>
<defs>
<clipPath id="clip0_12_11">
<rect width="2500" height="1125" fill="white" transform="translate(0.0100098 0.897705)"/>
</clipPath>
</defs>
</svg>
